<?xml version="1.0" standalone="no"?>
<!DOCTYPE svg PUBLIC "-//W3C//DTD SVG 20010904//EN"
 "http://www.w3.org/TR/2001/REC-SVG-20010904/DTD/svg10.dtd">
<svg version="1.0" xmlns="http://www.w3.org/2000/svg"
 width="998.000000pt" height="1600.000000pt" viewBox="0 0 998.000000 1600.000000"
 preserveAspectRatio="xMidYMid meet">

<g transform="translate(0.000000,1600.000000) scale(0.100000,-0.100000)"
fill="#000000" stroke="none">
<path d="M4407 12475 c-20 -19 -41 -35 -45 -35 -4 0 -15 -15 -25 -33 -24 -45
-121 -117 -166 -124 -33 -6 -138 -55 -151 -71 -3 -4 -12 -11 -21 -17 -61 -38
-105 -70 -111 -79 -3 -6 -18 -24 -32 -39 -14 -16 -42 -52 -61 -82 -18 -30 -43
-59 -54 -65 -51 -27 -74 -59 -79 -110 -2 -28 -9 -53 -13 -56 -20 -12 -9 -111
17 -159 25 -47 25 -50 15 -153 -15 -146 -14 -208 5 -244 22 -42 50 -166 58
-253 8 -88 27 -188 36 -195 4 -3 10 -12 13 -20 2 -8 3 -3 1 12 -2 15 1 30 6
33 5 3 7 13 4 23 -5 14 -4 15 5 2 16 -24 25 -3 28 68 5 127 21 211 49 260 64
112 75 142 72 199 -2 30 -6 57 -10 59 -13 8 2 87 26 140 22 47 69 94 95 94 6
0 11 4 11 9 0 5 18 12 40 16 22 4 43 12 46 17 5 7 2 8 -6 3 -8 -5 -11 -4 -7 2
3 5 24 8 46 7 23 -1 41 2 41 7 0 5 7 9 15 9 9 0 29 7 45 15 22 11 30 12 33 2
4 -9 7 -9 14 1 6 8 42 14 99 16 192 9 310 17 323 22 7 2 20 -1 29 -8 11 -9 60
-13 178 -12 90 0 161 -3 158 -8 -3 -4 2 -8 10 -8 8 0 18 5 21 10 9 15 26 12
23 -4 -4 -18 1 -19 25 -11 9 4 34 4 54 0 28 -5 33 -9 22 -17 -10 -7 -3 -8 24
-3 20 3 37 2 37 -3 0 -5 6 -9 13 -10 50 -6 76 -16 70 -26 -5 -8 -3 -8 8 0 8 6
28 8 44 4 20 -3 26 -8 18 -13 -7 -5 -13 -17 -13 -28 0 -16 -4 -19 -21 -14 -15
5 -19 4 -15 -4 4 -6 13 -11 21 -11 8 0 20 -9 28 -20 8 -11 17 -17 20 -13 4 3
7 -1 7 -9 0 -9 -6 -19 -12 -21 -7 -3 0 -6 15 -6 16 -1 26 -5 23 -10 -3 -5 -15
-7 -26 -4 -23 6 -29 -21 -7 -30 8 -3 12 -22 11 -53 0 -27 4 -55 10 -63 9 -12
7 -12 -12 -2 -13 7 -26 10 -30 7 -3 -3 0 -6 6 -6 7 0 12 -7 12 -15 0 -8 6 -15
14 -15 14 0 26 -27 31 -65 1 -11 -9 -30 -22 -43 -14 -13 -22 -29 -19 -38 5
-12 2 -12 -16 -3 -17 9 -18 13 -7 21 11 8 10 8 -4 4 -10 -3 -21 -6 -23 -6 -2
0 -4 -7 -4 -16 0 -14 -3 -14 -15 -4 -12 10 -15 9 -15 -8 0 -11 -7 -22 -15 -26
-16 -6 -20 -43 -6 -65 6 -9 11 -10 15 -2 11 17 77 13 99 -6 18 -17 19 -17 16
2 -3 15 1 19 16 17 10 -2 25 -11 32 -20 12 -16 13 -16 7 1 -8 21 9 22 27 1 7
-8 21 -13 31 -11 10 3 21 1 24 -4 3 -6 14 -7 25 -4 10 4 19 2 19 -3 0 -5 11
-9 25 -9 20 0 24 3 20 18 -5 15 -1 19 19 19 14 0 26 5 26 10 0 6 -12 10 -27
10 -16 0 -35 5 -43 11 -13 9 -13 10 2 6 9 -3 19 -3 22 1 4 3 19 6 33 7 22 0
29 6 36 32 8 26 14 31 36 28 14 -1 31 -3 38 -4 12 -1 37 -66 30 -78 -7 -12 38
-184 50 -192 17 -10 34 -77 28 -109 -3 -17 -1 -34 5 -37 6 -4 10 5 10 19 0 30
5 32 26 12 9 -9 14 -36 15 -73 1 -88 13 -42 44 162 21 139 25 187 17 215 -29
98 -35 128 -39 165 -2 22 -8 90 -13 150 -13 141 -12 351 0 439 7 47 7 73 0 80
-7 7 -10 6 -10 -2 0 -12 -32 7 -93 56 -33 25 -49 29 -41 8 6 -15 -28 -40 -39
-30 -3 3 -16 -1 -29 -10 -12 -9 -30 -16 -40 -16 -10 0 -18 -3 -18 -7 0 -5 -21
-21 -45 -38 -25 -16 -45 -34 -45 -39 0 -5 -8 -16 -19 -25 -10 -9 -22 -31 -26
-49 -11 -51 -19 -29 -17 45 1 39 8 73 16 82 7 9 16 28 20 43 3 15 17 35 31 44
24 16 37 43 13 28 -7 -5 -8 -3 -4 5 5 7 10 10 12 8 3 -2 21 11 41 29 20 18 41
30 46 27 6 -3 7 -2 4 4 -4 5 5 16 18 23 14 7 25 17 25 22 0 18 -125 68 -170
68 -42 0 -50 5 -115 65 -39 36 -76 65 -83 65 -7 0 -20 9 -29 20 -12 14 -30 20
-59 20 -24 0 -91 12 -150 26 -87 21 -129 25 -228 24 -66 -1 -139 -1 -161 -1
-22 -1 -87 2 -145 6 -179 11 -230 9 -246 -12 -12 -16 -15 -16 -24 -3 -5 8 -10
32 -10 53 0 47 -15 48 -63 2z m-722 -810 c6 -29 6 -29 -9 -11 -9 11 -16 29
-16 40 0 28 17 8 25 -29z m1929 -187 c-6 -9 -34 1 -34 11 0 4 3 10 6 14 8 7
33 -16 28 -25z m-167 -360 c-3 -8 -6 -5 -6 6 -1 11 2 17 5 13 3 -3 4 -12 1
-19z m613 -269 c0 -5 -4 -9 -10 -9 -5 0 -10 7 -10 16 0 8 5 12 10 9 6 -3 10
-10 10 -16z"/>
<path d="M5528 11273 c7 -3 16 -2 19 1 4 3 -2 6 -13 5 -11 0 -14 -3 -6 -6z"/>
<path d="M7019 11204 c11 -14 40 -41 64 -61 31 -25 57 -62 93 -130 41 -81 68
-116 169 -220 114 -119 280 -261 291 -250 5 5 -42 54 -102 107 -92 80 -238
268 -259 331 -19 55 -114 170 -154 184 -15 6 -40 22 -55 38 -15 15 -36 27 -47
27 l-20 0 20 -26z"/>
<path d="M5380 11090 c0 -5 5 -10 10 -10 6 0 10 5 10 10 0 6 -4 10 -10 10 -5
0 -10 -4 -10 -10z"/>
<path d="M5468 11063 c7 -3 16 -2 19 1 4 3 -2 6 -13 5 -11 0 -14 -3 -6 -6z"/>
<path d="M5466 11032 c-4 -3 -133 -28 -225 -44 -37 -6 -74 -19 -85 -29 -21
-20 -41 -26 -31 -9 3 6 1 10 -4 10 -6 0 -11 -6 -11 -14 0 -8 -4 -18 -10 -21
-6 -4 -7 1 -3 12 6 16 5 16 -11 4 -15 -13 -19 -13 -27 0 -6 11 -9 8 -9 -11 -1
-24 -1 -24 -15 -6 -14 18 -15 19 -15 2 0 -13 -5 -16 -16 -12 -13 5 -15 2 -11
-14 4 -17 3 -19 -8 -10 -9 8 -14 5 -18 -12 -7 -24 21 -80 36 -71 5 3 4 -4 -2
-15 -13 -24 -14 -45 -3 -38 5 3 3 -22 -4 -56 -7 -34 -19 -65 -26 -69 -13 -8 3
-13 40 -12 6 1 12 -6 12 -14 0 -11 -5 -13 -17 -8 -42 18 -108 26 -173 23 -54
-2 -70 0 -70 11 0 7 -15 28 -34 47 -34 34 -34 34 -7 29 14 -3 20 -2 14 1 -7 3
-13 13 -13 22 0 15 -2 15 -10 2 -8 -13 -10 -13 -10 2 0 9 6 23 13 30 8 7 20
25 27 38 12 23 12 24 -3 11 -15 -11 -17 -11 -17 2 0 9 5 19 10 22 13 8 13 25
0 25 -6 0 -15 -10 -20 -22 -6 -17 -9 -18 -9 -6 -1 9 4 20 9 23 17 11 11 23
-10 18 -14 -4 -23 3 -34 28 -8 20 -15 27 -15 17 -1 -11 -6 -15 -16 -12 -8 4
-15 1 -15 -5 0 -6 -14 -2 -32 9 -18 11 -47 20 -63 20 -17 0 -46 5 -65 10 -19
6 -56 11 -82 12 -27 1 -48 5 -48 8 0 3 -42 4 -93 3 -76 -1 -101 -6 -130 -23
-34 -20 -42 -31 -38 -54 1 -5 -5 -6 -13 -3 -10 4 -13 1 -10 -7 3 -8 -7 -26
-23 -40 -15 -14 -24 -26 -20 -26 4 0 1 -13 -8 -30 -19 -36 -19 -40 1 -40 8 0
29 16 47 35 47 50 125 61 252 35 91 -18 148 -38 115 -40 -10 -1 -9 -4 5 -10
12 -6 -40 -9 -140 -9 -207 1 -286 -13 -320 -53 -22 -26 -30 -47 -26 -70 0 -5
-16 -8 -36 -8 -30 0 -43 -7 -65 -32 -26 -30 -36 -58 -22 -58 3 0 17 9 31 20
14 11 38 20 53 20 l27 0 6 -118 c6 -132 26 -198 68 -230 14 -11 57 -31 95 -44
61 -20 88 -23 234 -23 212 0 232 4 276 46 40 38 95 118 113 166 7 17 19 34 27
37 7 3 25 28 39 55 27 54 30 65 16 57 -5 -4 -11 0 -14 6 -2 7 -8 -5 -12 -27
-9 -49 -14 -57 -26 -49 -6 4 -6 10 -1 17 6 7 13 35 17 63 l7 52 49 6 c53 7
143 -1 172 -16 9 -5 17 -16 16 -26 0 -14 -2 -14 -9 3 -5 11 -9 14 -9 6 -1 -10
-4 -11 -14 -2 -11 8 -13 5 -9 -19 2 -17 9 -30 14 -30 5 0 8 -6 5 -12 -2 -7 2
-29 9 -50 7 -20 9 -40 6 -44 -4 -4 -2 -4 4 -1 6 4 18 -17 29 -51 25 -82 51
-128 99 -181 56 -60 61 -73 57 -141 -1 -29 -22 -25 -53 10 -14 17 -36 30 -47
30 -12 0 -21 4 -21 8 0 4 -9 8 -20 9 -11 1 -20 -2 -20 -8 0 -5 -9 -9 -19 -9
-11 0 -33 -12 -50 -26 -27 -22 -35 -24 -63 -15 -19 5 -51 6 -73 2 -33 -6 -46
-3 -78 18 -47 30 -128 35 -153 9 -26 -26 -27 -75 -3 -88 14 -8 19 -19 17 -38
-2 -21 -15 -33 -58 -55 -30 -16 -73 -31 -95 -33 -22 -3 -50 -12 -62 -20 -12
-8 -31 -14 -41 -14 -16 0 -162 -113 -170 -132 -2 -4 -13 -18 -24 -30 -11 -13
-17 -18 -14 -11 4 6 1 13 -5 15 -9 3 -8 9 1 24 11 17 10 24 -6 42 -16 19 -20
20 -35 6 -15 -13 -17 -13 -22 0 -4 9 -13 13 -22 10 -13 -5 -14 -2 -5 20 11 30
3 34 -17 9 -11 -14 -13 -15 -12 -3 1 8 1 22 0 30 -1 13 -2 13 -11 0 -6 -9 -10
-11 -10 -3 0 7 -7 10 -15 7 -11 -5 -13 -2 -8 12 5 14 3 16 -13 10 -15 -6 -17
-5 -6 5 16 17 16 30 -1 23 -7 -2 -19 7 -27 21 -7 14 -20 25 -27 25 -8 0 -12 4
-9 9 3 5 -1 21 -9 37 -24 49 -45 145 -55 247 -4 54 -10 100 -12 102 -2 3 -13
2 -25 -1 -23 -6 -31 -32 -40 -123 -5 -50 -3 -55 30 -90 19 -20 38 -46 41 -58
4 -12 0 -64 -8 -115 -9 -52 -13 -117 -11 -144 22 -226 28 -272 41 -302 8 -19
12 -37 9 -40 -3 -3 -137 -5 -298 -3 -318 2 -381 -4 -510 -54 -176 -66 -342
-227 -502 -486 -74 -119 -75 -124 -41 -115 21 5 46 -2 104 -31 l75 -37 106 22
c58 12 146 38 195 58 49 20 108 39 130 41 23 3 71 14 109 25 83 25 198 21 331
-11 50 -11 97 -21 105 -21 9 0 29 20 45 45 46 74 141 162 209 194 72 34 117
47 117 34 0 -5 18 -29 40 -51 23 -25 37 -48 34 -57 -3 -7 3 -23 14 -35 10 -11
25 -40 33 -63 7 -23 18 -45 24 -49 6 -5 6 -8 -2 -8 -7 0 -13 -7 -13 -16 0 -8
3 -13 8 -10 4 2 16 -2 27 -10 18 -14 18 -14 -3 -14 -27 0 -28 -14 -2 -40 24
-24 26 -46 4 -54 -48 -19 -117 15 -122 60 -2 16 -7 34 -12 39 -4 6 -13 53 -19
105 -20 161 -23 165 -79 105 -57 -60 -71 -168 -30 -233 14 -23 21 -49 19 -73
-1 -21 3 -40 8 -43 5 -3 7 -15 4 -25 -3 -12 6 -34 22 -55 17 -22 27 -49 28
-72 1 -32 4 -35 24 -31 18 3 35 -8 76 -50 28 -31 81 -79 117 -108 87 -69 145
-147 174 -231 13 -38 35 -97 50 -131 15 -37 26 -81 26 -109 0 -72 19 -50 60
71 20 61 50 136 66 167 35 70 169 232 204 247 14 7 36 18 50 26 14 8 41 15 60
15 19 0 75 9 124 20 63 14 127 20 212 20 120 0 122 0 205 39 67 30 108 60 199
142 63 56 120 108 126 114 22 21 34 55 34 92 -1 33 -2 35 -12 18 -18 -32 -60
-75 -70 -69 -4 3 -8 -2 -8 -11 0 -9 -4 -14 -9 -11 -5 3 -22 -1 -37 -9 -16 -8
-37 -15 -46 -15 -9 0 -20 -5 -24 -11 -4 -6 -20 -8 -40 -4 -30 5 -34 3 -34 -15
0 -22 -1 -23 -24 -14 -20 8 -21 24 -1 24 8 0 15 6 15 14 0 9 -7 12 -19 9 -21
-5 -37 25 -21 41 14 14 12 26 -5 26 -7 0 -19 -8 -24 -17 -6 -10 -11 -15 -11
-11 0 4 9 23 20 43 11 19 19 39 18 43 -3 9 50 62 62 62 5 0 12 9 15 21 4 11
13 18 20 15 20 -7 48 29 40 53 -3 12 -11 19 -16 16 -5 -4 -9 -4 -9 0 0 3 12
10 28 16 15 6 22 13 15 16 -6 2 18 35 55 74 37 38 84 88 105 111 20 23 40 38
44 34 4 -3 -1 -57 -10 -119 -26 -177 -26 -181 3 -185 50 -6 127 -36 233 -89
84 -43 114 -64 133 -93 36 -54 56 -125 55 -197 -1 -57 2 -67 34 -109 33 -43
40 -67 35 -121 -2 -31 12 -29 71 12 54 37 70 40 132 26 23 -6 51 -5 70 0 18 5
59 14 92 18 33 5 78 16 100 25 22 8 60 15 85 16 82 0 240 -54 320 -110 19 -14
149 -44 156 -36 3 3 -28 156 -47 231 -64 248 -120 374 -212 471 -103 111 -279
240 -316 231 -9 -2 -30 7 -47 19 -71 52 -234 80 -539 94 -132 6 -250 13 -262
16 -19 4 -23 11 -23 40 0 20 8 48 18 62 23 33 33 58 38 97 3 17 13 77 24 135
17 97 17 112 4 184 -8 42 -14 101 -12 129 l3 51 38 2 c75 2 117 50 117 134 0
38 -5 47 -60 100 l-60 58 -10 -37 c-13 -49 -13 -64 5 -87 21 -28 19 -97 -4
-118 -18 -16 -19 -16 -28 11 l-10 28 -13 -40 c-23 -72 -75 -175 -85 -171 -6 2
-17 -9 -23 -24 -7 -16 -24 -31 -38 -34 -14 -4 -27 -12 -30 -19 -3 -8 -17 -11
-38 -9 -20 2 -38 -2 -48 -11 -11 -12 -18 -13 -26 -5 -8 8 -13 6 -18 -8 -4 -10
-19 -29 -33 -42 -24 -20 -27 -21 -38 -6 -11 15 -13 14 -22 -10 -10 -24 -22
-30 -58 -29 -7 1 -13 -3 -13 -8 0 -6 -8 -5 -19 1 -14 7 -22 7 -26 0 -4 -6 -1
-9 6 -8 6 2 14 -3 16 -10 4 -10 -3 -10 -26 3 -59 30 -171 106 -171 115 0 5 -7
7 -15 4 -8 -3 -30 4 -50 16 -19 12 -39 19 -44 15 -5 -3 -13 1 -18 9 -4 8 -12
15 -18 15 -5 1 -10 9 -10 19 0 12 9 18 33 20 17 2 32 8 32 14 0 5 -7 8 -15 4
-8 -3 -15 -1 -15 4 0 6 9 10 20 10 11 0 19 5 17 12 -1 6 9 14 23 18 16 4 26
14 28 29 2 13 11 25 21 28 21 5 21 57 -1 61 -8 2 -21 14 -28 27 -7 13 -17 22
-23 18 -5 -3 -7 0 -5 8 3 8 11 13 19 12 8 -1 62 -9 120 -18 137 -19 290 -20
357 0 86 26 130 107 154 287 11 86 12 88 39 88 44 0 59 10 59 40 0 27 -3 29
-42 32 -34 2 -44 7 -46 23 -2 11 -13 30 -24 41 -15 17 -16 23 -6 27 10 4 10 8
-2 16 -8 6 -10 11 -4 11 6 0 11 14 12 31 0 17 3 33 6 36 3 3 -15 42 -38 87
-60 112 -120 172 -201 202 -19 7 -124 12 -129 6z m-1114 -305 c81 -7 150 -16
154 -20 4 -4 -1 -7 -11 -7 -15 0 -15 -2 -4 -16 11 -14 9 -15 -27 -8 -152 32
-351 -30 -367 -113 -4 -22 -2 -24 19 -20 14 2 27 0 30 -4 3 -5 13 -5 22 -1 20
10 73 10 88 -1 7 -4 17 0 24 8 16 19 64 19 83 0 9 -8 17 -10 19 -5 2 7 13 6
30 -2 34 -16 36 -28 5 -28 -14 0 -24 -6 -24 -15 0 -8 4 -15 9 -15 4 0 8 5 8
12 0 8 3 9 11 1 13 -13 107 3 126 23 8 8 25 14 39 14 35 0 40 24 13 67 l-22
38 26 -24 c15 -14 27 -21 27 -17 0 5 7 3 15 -4 21 -18 29 -7 29 43 1 39 -1 43
-34 54 -21 7 -27 12 -15 12 11 0 39 -8 62 -18 33 -15 44 -27 51 -54 24 -88
-74 -353 -154 -416 -43 -34 -124 -44 -294 -38 -232 9 -305 38 -330 134 -6 26
-14 111 -17 188 -4 122 -2 144 14 175 17 33 23 36 98 52 97 20 112 20 297 5z
m1118 -27 l25 -8 -25 0 c-14 0 -38 4 -55 8 l-30 8 30 0 c17 0 41 -4 55 -8z
m-946 -25 c3 -8 1 -15 -4 -15 -6 0 -10 7 -10 15 0 8 2 15 4 15 2 0 6 -7 10
-15z m1072 -1 c18 -14 18 -14 -6 -3 -31 14 -36 19 -24 19 6 0 19 -7 30 -16z
m-524 -26 c-9 -9 -7 -17 11 -37 12 -13 16 -21 8 -16 -11 6 -12 2 -6 -21 5 -16
8 -42 7 -57 -1 -18 3 -27 11 -24 7 2 31 -16 54 -41 31 -33 51 -46 75 -48 53
-5 56 -7 50 -22 -4 -11 -1 -13 7 -7 8 4 17 2 22 -6 7 -11 11 -10 23 6 18 24
20 35 5 35 -5 0 -8 4 -4 9 3 6 45 7 103 4 53 -4 114 -7 135 -7 20 -1 37 -4 37
-8 0 -16 76 -12 95 5 59 53 57 48 58 134 1 17 4 30 9 27 4 -3 8 0 8 5 0 6 -5
11 -11 11 -5 0 -8 4 -4 9 3 5 -5 17 -17 25 -28 20 -7 21 30 2 47 -24 56 -54
49 -158 -4 -51 -15 -126 -26 -165 -45 -171 -71 -188 -281 -187 -161 1 -250 14
-326 48 -56 26 -79 54 -112 135 -25 61 -31 118 -7 66 l14 -30 1 33 c0 17 5 32
10 32 18 0 11 18 -10 25 -11 3 -20 15 -20 25 0 21 -20 39 -20 18 0 -8 -5 -5
-11 6 -17 29 -7 141 15 165 11 12 22 21 25 21 3 0 0 -5 -7 -12z m575 6 c-3 -3
-12 -4 -19 -1 -8 3 -5 6 6 6 11 1 17 -2 13 -5z m-1172 -39 c0 -14 -8 -21 -28
-23 -26 -3 -27 -2 -15 23 13 30 43 30 43 0z m-211 -12 c8 -26 4 -38 -14 -35
-29 7 -41 23 -29 38 16 19 37 17 43 -3z m320 -29 c9 -3 16 -10 16 -15 0 -15
-37 -10 -50 6 -10 12 -10 15 3 15 8 0 22 -3 31 -6z m234 -662 c2 -12 -1 -22
-7 -22 -6 0 -11 3 -12 8 0 4 -2 15 -4 25 -2 10 2 17 8 14 7 -2 13 -13 15 -25z
m62 3 c0 -8 -9 -15 -20 -15 -22 0 -27 15 -7 23 21 9 27 7 27 -8z m211 -15 c12
0 12 -27 -1 -35 -12 -7 -40 18 -40 35 0 7 7 9 16 6 9 -3 20 -6 25 -6z m649
-114 c0 -3 -4 -8 -10 -11 -5 -3 -10 -1 -10 4 0 6 5 11 10 11 6 0 10 -2 10 -4z
m-971 -56 c21 -6 49 -6 75 0 29 6 49 5 71 -4 16 -8 53 -19 80 -26 28 -7 74
-23 103 -36 29 -13 59 -24 66 -24 17 0 76 -54 76 -69 0 -18 -14 -13 -92 34
-118 71 -179 87 -348 90 -172 4 -198 0 -321 -60 -52 -24 -99 -45 -106 -45 -23
0 12 49 47 66 19 9 43 21 52 25 10 5 29 9 43 9 14 0 25 5 25 12 0 6 3 9 6 6 3
-3 33 2 67 12 72 21 109 24 156 10z m-348 -248 c19 -21 61 -50 92 -65 31 -15
57 -29 57 -32 0 -2 -6 -2 -14 1 -9 4 -15 -5 -18 -25 -3 -17 -1 -31 4 -31 4 0
8 5 8 12 0 6 2 9 5 6 3 -3 3 -13 -1 -22 -6 -14 -8 -14 -33 3 -14 10 -35 17
-46 15 -10 -1 -25 2 -32 8 -24 20 -26 0 -5 -43 12 -23 19 -46 16 -51 -3 -4 7
-8 21 -8 14 0 24 -4 21 -9 -3 -5 5 -12 19 -15 14 -4 25 -14 25 -22 0 -14 3
-14 15 -4 12 10 15 10 15 -3 0 -8 9 -17 20 -20 26 -7 16 -37 -12 -37 -10 0
-16 -5 -13 -10 4 -6 11 -8 16 -5 5 4 9 1 9 -4 0 -14 -37 -14 -46 0 -3 6 -22 9
-40 7 -19 -2 -34 0 -34 4 0 4 -10 8 -23 8 -16 0 -23 6 -23 20 0 11 4 20 8 20
4 0 8 5 8 12 0 6 -7 4 -18 -5 -10 -10 -22 -14 -25 -11 -4 4 1 13 11 20 15 12
13 13 -13 9 l-30 -5 30 17 30 18 -28 3 c-15 2 -25 7 -23 11 3 4 -6 14 -19 21
-14 8 -29 28 -34 47 -12 42 -4 125 12 135 9 6 9 10 0 19 -10 10 -7 17 15 31
15 10 29 18 32 18 3 0 21 -17 41 -38z m99 18 c0 -5 -9 -8 -20 -7 -22 1 -27 13
-7 20 14 5 27 -1 27 -13z m50 9 c0 -8 5 -8 15 1 12 10 15 10 15 -3 0 -12 -9
-16 -35 -15 -28 1 -33 4 -24 15 14 16 29 17 29 2z m77 -13 c-5 -16 -27 -19
-27 -3 0 7 7 14 15 14 9 0 14 -5 12 -11z m558 -36 c-3 -5 -1 -10 4 -10 6 0 11
-7 11 -16 0 -12 -6 -15 -21 -11 -15 4 -19 2 -15 -10 9 -22 -3 -35 -18 -21 -19
20 -15 59 5 53 10 -3 19 1 23 10 3 8 8 15 11 15 4 0 3 -4 0 -10z m-75 -50 c0
-5 -5 -10 -11 -10 -5 0 -7 5 -4 10 3 6 8 10 11 10 2 0 4 -4 4 -10z m121 -32
c23 -26 23 -23 -1 -25 -13 -1 -18 2 -14 9 5 7 1 9 -9 5 -19 -7 -20 -6 -11 17
8 21 13 20 35 -6z m-31 -41 c0 -8 -7 -14 -15 -14 -11 0 -12 4 -4 14 6 7 13 13
15 13 2 0 4 -6 4 -13z m-75 -87 c3 -5 -1 -10 -9 -10 -9 0 -16 5 -16 10 0 6 4
10 9 10 6 0 13 -4 16 -10z m-35 -25 c16 -19 1 -19 -24 0 -16 12 -17 15 -4 15
8 0 21 -7 28 -15z m-35 -24 c3 -5 1 -12 -5 -16 -5 -3 -10 1 -10 9 0 18 6 21
15 7z m40 -53 c-2 -28 -47 -37 -70 -14 -19 19 -19 21 5 23 11 1 20 -4 20 -13
0 -8 5 -14 10 -14 6 0 10 9 10 20 0 11 6 20 13 20 8 0 13 -10 12 -22z m478
-228 c3 -12 0 -20 -8 -20 -8 0 -11 8 -8 20 3 11 7 20 8 20 1 0 5 -9 8 -20z
m-160 -175 c-3 -9 -8 -14 -10 -11 -3 3 -2 9 2 15 9 16 15 13 8 -4z"/>
<path d="M4158 10691 c-47 -30 -64 -48 -54 -58 3 -3 28 11 56 32 27 20 62 40
78 45 l27 8 -31 1 c-17 1 -49 -11 -76 -28z"/>
<path d="M4691 10461 c-1 -16 -6 -21 -16 -18 -20 8 -28 -8 -11 -22 18 -15 39
10 33 41 l-4 23 -2 -24z"/>
<path d="M5371 10394 c13 -16 29 -19 29 -5 0 5 -9 11 -21 14 -16 4 -18 3 -8
-9z"/>
<path d="M4472 9408 c5 -15 28 -23 28 -10 0 5 -7 13 -16 16 -10 4 -14 1 -12
-6z"/>
<path d="M4371 9387 c2 -1 12 -9 22 -16 15 -12 17 -12 11 3 -3 9 -13 16 -22
16 -8 0 -13 -1 -11 -3z"/>
<path d="M6345 10970 c-11 -19 -22 -62 -25 -95 l-5 -60 -22 23 c-13 12 -26 22
-29 22 -4 0 24 -30 60 -67 37 -37 81 -93 98 -124 47 -89 119 -164 194 -200 97
-48 137 -94 213 -249 37 -74 79 -152 93 -173 28 -42 46 -37 23 6 -8 15 -11 27
-7 27 4 0 2 4 -4 8 -12 9 -40 67 -49 105 -4 15 -11 27 -15 27 -5 0 -10 10 -12
23 -2 12 -9 21 -15 20 -12 -3 -27 31 -20 44 7 12 -12 55 -21 49 -5 -3 -8 5 -8
17 1 14 -8 26 -22 32 -14 6 -27 25 -34 48 -6 20 -15 37 -20 37 -4 0 -8 16 -8
36 0 38 -15 74 -31 74 -5 0 -29 9 -51 20 -47 22 -65 25 -70 10 -2 -6 -18 13
-36 40 -19 28 -41 54 -50 57 -9 4 -34 20 -54 37 -38 29 -38 30 -39 105 -1 42
-4 90 -8 106 l-7 30 -19 -35z"/>
<path d="M7025 10980 c-3 -5 -1 -10 4 -10 6 0 11 5 11 10 0 6 -2 10 -4 10 -3
0 -8 -4 -11 -10z"/>
<path d="M6237 10890 c3 -11 9 -20 15 -20 5 0 4 9 -2 20 -6 11 -12 20 -14 20
-2 0 -2 -9 1 -20z"/>
<path d="M7040 10843 c0 -7 -8 -13 -17 -13 -15 0 -16 -2 -3 -10 8 -5 19 -5 24
0 4 4 24 6 42 3 34 -6 47 8 22 23 -21 13 -68 12 -68 -3z"/>
<path d="M6001 10784 c0 -11 3 -14 6 -6 3 7 2 16 -1 19 -3 4 -6 -2 -5 -13z"/>
<path d="M3822 10745 c0 -16 2 -22 5 -12 2 9 2 23 0 30 -3 6 -5 -1 -5 -18z"/>
<path d="M3793 10667 c4 -10 7 -23 7 -28 0 -5 5 -9 10 -9 15 0 12 20 -7 38
-16 16 -16 16 -10 -1z"/>
<path d="M3689 10540 c44 -38 81 -56 81 -40 0 5 2 15 5 22 4 10 -11 21 -47 36
-77 32 -89 27 -39 -18z"/>
<path d="M6032 10540 c-7 -11 -23 -20 -36 -20 -14 0 -28 -4 -31 -10 -4 -6 7
-10 26 -10 27 0 30 -2 19 -15 -10 -12 -7 -12 19 1 31 16 35 25 23 56 -7 17 -8
16 -20 -2z"/>
<path d="M6133 10521 c-57 -18 -96 -44 -52 -35 19 5 21 4 9 -5 -22 -16 4 -14
43 3 42 19 87 56 67 55 -8 -1 -39 -9 -67 -18z"/>
<path d="M3556 10496 c-8 -40 7 -109 39 -181 21 -49 39 -104 70 -217 9 -32 21
-58 26 -58 5 0 9 -4 9 -10 0 -13 32 -45 59 -60 30 -15 25 0 -9 34 -17 16 -30
33 -30 37 0 4 -9 10 -19 14 -11 3 -20 14 -20 23 0 9 -1 103 -1 207 l0 190 -39
28 c-54 38 -77 36 -85 -7z"/>
<path d="M6254 10490 c-29 -11 -68 -66 -54 -75 12 -8 12 -91 0 -180 -5 -33
-10 -82 -11 -110 -3 -72 -29 -115 -97 -163 -34 -25 -41 -42 -18 -42 36 0 94
78 168 230 84 171 109 260 87 311 -6 16 -15 29 -19 29 -5 0 -14 2 -22 4 -7 3
-23 1 -34 -4z"/>
<path d="M3792 10430 c0 -19 2 -27 5 -17 2 9 2 25 0 35 -3 9 -5 1 -5 -18z"/>
<path d="M3728 10435 c-3 -4 -1 -21 5 -38 5 -18 11 -37 13 -44 1 -6 12 -9 23
-6 14 4 20 -1 24 -19 2 -13 5 -5 6 20 0 23 -3 42 -9 42 -5 0 -20 11 -33 25
-13 14 -26 23 -29 20z"/>
<path d="M6104 10415 c-4 -8 -12 -15 -20 -15 -17 0 -32 -72 -15 -78 6 -2 8 -9
4 -15 -4 -7 4 -5 17 4 15 10 26 28 28 45 2 16 8 33 13 39 14 14 11 35 -6 35
-9 0 -18 -7 -21 -15z"/>
<path d="M6875 10399 c-4 -6 -5 -12 -2 -15 2 -3 7 2 10 11 7 17 1 20 -8 4z"/>
<path d="M4527 10153 c-4 -3 -7 -11 -7 -17 0 -6 5 -5 12 2 6 6 9 14 7 17 -3 3
-9 2 -12 -2z"/>
<path d="M7245 10120 c-3 -5 -1 -10 4 -10 6 0 11 5 11 10 0 6 -2 10 -4 10 -3
0 -8 -4 -11 -10z"/>
<path d="M6960 9974 c0 -5 9 -20 20 -34 18 -24 19 -24 14 -3 -6 22 -34 53 -34
37z"/>
<path d="M5190 9920 c0 -6 7 -10 15 -10 8 0 15 2 15 4 0 2 -7 6 -15 10 -8 3
-15 1 -15 -4z"/>
<path d="M7000 9880 c0 -5 5 -10 11 -10 5 0 7 5 4 10 -3 6 -8 10 -11 10 -2 0
-4 -4 -4 -10z"/>
<path d="M5170 9846 c0 -9 5 -16 10 -16 6 0 10 4 10 9 0 6 -4 13 -10 16 -5 3
-10 -1 -10 -9z"/>
<path d="M7060 9781 c0 -17 42 -104 55 -113 22 -16 22 4 -1 27 -13 13 -24 32
-24 42 -1 21 -30 64 -30 44z"/>
<path d="M5800 8856 c0 -7 20 -19 45 -26 76 -21 111 -71 162 -230 10 -31 24
-56 33 -57 21 -4 72 80 63 103 -4 11 -3 15 5 10 6 -3 13 -2 17 4 3 5 1 10 -4
10 -15 0 -14 27 1 32 10 4 9 8 -2 19 -52 49 -135 92 -239 125 -89 28 -81 27
-81 10z"/>
<path d="M3554 8657 c-12 -17 -30 -47 -40 -64 -22 -39 -23 -39 -59 -11 l-28
22 7 -35 c4 -19 8 -50 9 -69 l2 -35 -66 3 c-72 4 -99 -11 -53 -28 38 -15 108
-2 132 24 19 19 72 107 109 179 21 41 11 52 -13 14z"/>
<path d="M3541 8429 c-74 -33 -81 -43 -35 -49 39 -5 39 -5 48 -62 7 -46 13
-58 28 -58 10 0 18 -4 18 -9 0 -13 114 -47 240 -71 63 -12 129 -28 145 -35 37
-16 86 -65 125 -125 16 -25 43 -61 60 -80 27 -30 34 -32 51 -22 15 10 19 10
20 0 0 -7 5 2 10 20 7 22 16 32 29 32 17 0 20 7 20 53 0 71 -14 115 -51 160
-36 43 -54 45 -226 25 l-102 -12 -148 49 c-81 27 -158 59 -172 71 l-26 22 18
50 c9 27 17 52 17 56 0 11 -24 6 -69 -15z"/>
<path d="M5395 8318 c-21 -18 -55 -50 -76 -70 -38 -38 -46 -42 -86 -38 -12 0
-40 -10 -62 -24 -22 -14 -45 -26 -51 -26 -22 0 -8 -22 20 -31 32 -12 38 -27
18 -48 -11 -11 -10 -12 0 -7 7 4 19 3 26 -3 8 -7 67 -10 162 -9 206 2 338 -16
397 -54 15 -10 41 -27 57 -38 17 -12 35 -18 40 -15 6 3 10 -1 10 -9 0 -9 6
-16 14 -16 8 0 16 -5 18 -11 2 -7 18 4 35 22 63 68 114 131 110 136 -3 2 -23
-4 -46 -13 -82 -32 -182 11 -295 126 -55 57 -96 88 -154 119 -44 22 -84 41
-89 41 -6 0 -27 -15 -48 -32z"/>
<path d="M5030 8290 c-11 -7 -8 -9 15 -9 17 1 41 5 55 9 22 7 20 8 -15 9 -22
0 -47 -4 -55 -9z"/>
<path d="M4945 8220 c3 -5 10 -10 16 -10 5 0 9 5 9 10 0 6 -7 10 -16 10 -8 0
-12 -4 -9 -10z"/>
<path d="M7655 8139 c-7 -10 21 -38 38 -39 14 0 7 38 -9 44 -21 8 -22 8 -29
-5z"/>
<path d="M6253 7923 c-17 -6 -16 -43 2 -84 l14 -34 1 63 c0 34 -1 62 -2 61 -2
0 -9 -3 -15 -6z"/>
<path d="M6110 7896 c-5 -14 -15 -38 -20 -52 -31 -80 -57 -320 -37 -341 11
-10 35 27 48 72 10 36 30 334 23 344 -2 2 -8 -8 -14 -23z"/>
<path d="M7761 7891 c-9 -6 -11 -15 -6 -27 4 -11 7 -29 6 -41 -2 -22 30 -63
49 -63 6 0 10 -18 10 -40 0 -22 3 -40 8 -40 9 0 32 -49 32 -70 0 -9 7 -25 15
-36 8 -10 15 -27 15 -36 0 -10 7 -18 16 -18 10 0 14 -5 10 -15 -3 -9 4 -25 15
-36 15 -15 18 -24 10 -28 -19 -12 -1 -41 25 -41 16 0 22 -4 18 -15 -7 -17 22
-50 30 -36 4 5 0 11 -6 14 -10 3 -10 7 -1 17 19 20 32 2 26 -35 -4 -22 -1 -41
8 -51 12 -15 14 -13 21 17 5 19 11 60 14 93 3 32 12 68 20 81 10 15 13 35 8
62 -4 29 -2 44 10 56 17 17 21 37 7 37 -5 0 -16 17 -24 38 -9 21 -16 29 -16
18 -1 -17 -2 -17 -18 2 -17 19 -77 44 -135 56 -19 4 -34 18 -47 45 -11 21 -18
41 -16 43 3 3 -4 13 -15 23 -19 17 -20 17 -28 -5 -8 -23 -9 -22 -15 8 -7 32
-20 39 -46 23z"/>
<path d="M2197 7759 c7 -7 15 -10 18 -7 3 3 -2 9 -12 12 -14 6 -15 5 -6 -5z"/>
<path d="M9907 7653 c-16 -16 -121 -43 -153 -40 -43 5 -84 -12 -84 -35 0 -27
-11 -48 -26 -48 -8 0 -38 -18 -66 -41 -38 -29 -53 -37 -59 -27 -6 9 -10 8 -15
-5 -3 -9 -10 -15 -14 -12 -4 3 -10 -2 -14 -10 -7 -18 -32 -20 -40 -2 -3 6 -3
-1 0 -18 3 -16 15 -39 27 -50 l22 -20 -23 -3 c-12 -2 -22 -10 -22 -19 0 -12 8
-13 40 -8 28 5 40 3 40 -5 0 -17 -109 -8 -120 10 -11 18 -29 3 -23 -20 4 -17
1 -20 -18 -16 -26 4 -31 1 -106 -73 -37 -37 -56 -49 -69 -44 -10 4 -21 0 -28
-8 -16 -22 -42 -29 -54 -17 -8 8 -13 7 -18 -5 -10 -27 -91 -23 -115 5 -25 28
-24 37 4 48 19 7 16 9 -18 9 -51 1 -65 15 -65 63 0 25 -5 41 -15 44 -8 4 -15
12 -15 19 0 16 -35 29 -50 20 -8 -5 -8 -11 0 -20 16 -19 5 -22 -84 -24 -55 -1
-82 3 -88 11 -6 9 -10 7 -14 -9 -4 -13 -12 -23 -19 -23 -7 0 -15 -7 -19 -15
-3 -8 -13 -15 -22 -15 -12 0 -15 -6 -11 -21 3 -12 0 -30 -6 -41 -9 -16 -9 -22
1 -25 13 -5 17 -39 5 -45 -5 -1 -16 -20 -26 -42 -19 -42 -23 -42 -127 -16 -82
21 -160 27 -160 13 0 -8 -14 -13 -40 -13 -22 0 -40 5 -40 10 0 18 -28 11 -43
-11 -8 -11 -21 -20 -28 -19 -40 6 -56 -2 -70 -32 -8 -17 -23 -36 -34 -42 -11
-6 -26 -19 -33 -29 -9 -11 -21 -16 -30 -12 -9 3 -13 3 -9 -1 13 -14 -15 -34
-39 -28 -17 5 -26 1 -31 -12 -5 -11 -15 -20 -23 -21 -8 -1 -37 -7 -64 -13 -35
-7 -53 -7 -63 1 -7 7 -13 7 -13 2 0 -6 -26 -15 -57 -21 -93 -18 -127 -20 -150
-9 -24 11 -113 -8 -113 -24 0 -5 -5 -9 -12 -9 -6 0 -8 3 -4 7 17 17 -74 29
-179 23 -109 -7 -110 -7 -131 18 -15 18 -26 23 -42 18 -15 -5 -24 -3 -28 8 -3
9 -10 14 -14 11 -5 -3 -21 15 -37 40 -15 25 -31 45 -35 45 -3 0 -10 19 -14 43
-4 23 -9 36 -11 29 -18 -50 80 -278 176 -410 28 -39 62 -94 76 -124 53 -114
147 -255 229 -341 20 -21 36 -42 36 -47 0 -5 16 -18 36 -30 33 -21 34 -23 18
-41 -10 -11 -15 -21 -12 -24 2 -2 30 0 61 5 63 10 240 4 305 -11 24 -5 66 -7
95 -4 45 4 47 3 17 -5 -43 -11 -109 -39 -93 -40 6 0 53 8 105 19 76 15 122 18
248 14 112 -4 184 -1 257 11 182 28 402 116 548 221 61 44 222 200 252 245 55
82 227 242 398 369 55 41 132 98 170 127 39 29 101 82 138 118 l67 65 0 253 0
253 -33 2 c-19 2 -37 0 -40 -4z"/>
<path d="M2482 7575 c0 -16 2 -22 5 -12 2 9 2 23 0 30 -3 6 -5 -1 -5 -18z"/>
<path d="M8130 7590 c0 -5 7 -10 15 -10 8 0 15 5 15 10 0 6 -7 10 -15 10 -8 0
-15 -4 -15 -10z"/>
<path d="M6746 7568 c-38 -132 -59 -254 -81 -457 -7 -73 -16 -135 -19 -138 -2
-3 -18 5 -35 18 -22 16 -31 31 -31 51 0 35 -16 37 -24 3 -4 -14 -11 -23 -17
-19 -6 3 -8 8 -5 11 3 3 -6 25 -19 48 -14 23 -25 54 -25 69 0 18 -4 25 -11 20
-14 -8 -5 -109 15 -180 8 -27 19 -96 25 -154 6 -58 22 -161 35 -230 14 -69 32
-179 40 -245 9 -66 20 -158 26 -205 6 -47 15 -101 20 -120 5 -19 14 -85 19
-145 6 -61 16 -133 23 -161 12 -51 13 -52 56 -57 69 -8 82 -1 82 44 0 44 15
60 24 25 6 -23 36 -45 36 -26 0 6 4 10 8 10 14 0 32 -48 32 -85 0 -28 3 -32
20 -28 17 4 20 0 20 -25 0 -25 3 -29 20 -25 15 4 21 -2 27 -23 13 -51 21 71
10 161 -16 130 -15 150 8 153 16 2 27 -10 48 -51 15 -30 27 -63 27 -73 0 -24
18 -44 34 -38 6 2 17 -8 23 -24 7 -15 21 -38 30 -51 58 -77 80 -76 67 3 -13
78 -11 211 3 228 9 10 9 18 2 25 -15 15 8 28 25 13 8 -6 31 -45 52 -88 21 -42
60 -101 87 -129 86 -92 90 -63 12 80 -49 90 -68 148 -47 147 4 -1 18 -7 32
-15 27 -16 100 -20 100 -6 0 5 19 12 42 15 37 6 46 4 61 -15 l18 -22 27 25
c15 14 44 35 65 47 20 13 37 24 37 26 0 1 -19 -2 -42 -8 -77 -19 -348 20 -348
51 0 5 -20 17 -45 27 -28 10 -56 31 -73 53 -15 20 -52 63 -83 96 -31 34 -68
84 -83 111 -19 36 -39 57 -69 73 -23 12 -51 35 -62 50 -11 15 -38 47 -61 72
-45 50 -129 188 -162 266 -57 137 -64 275 -21 405 18 52 23 97 28 247 3 100 5
182 3 182 -1 0 -4 -6 -6 -12z m484 -1652 c0 -2 3 -11 6 -20 9 -23 -9 -20 -24
4 -10 17 -10 20 3 20 8 0 15 -2 15 -4z"/>
<path d="M2490 7475 c0 -4 10 -20 21 -37 17 -24 20 -37 14 -71 -17 -105 -17
-107 -4 -107 8 0 21 4 29 10 12 7 12 13 1 34 -10 17 -11 32 -4 53 13 36 -4 87
-34 108 -13 9 -23 13 -23 10z"/>
<path d="M2594 7469 c-17 -21 -27 -59 -15 -59 14 0 33 37 29 57 -3 14 -5 14
-14 2z"/>
<path d="M4399 7389 c-14 -28 -17 -39 -7 -32 8 7 17 10 20 8 3 -3 8 9 12 26 9
47 0 46 -25 -2z"/>
<path d="M1825 7394 c-213 -20 -273 -28 -359 -45 -132 -27 -248 -86 -277 -142
-11 -21 -11 -21 7 -6 42 37 129 80 197 98 129 34 627 77 767 66 79 -6 180 -37
180 -55 0 -4 8 -10 18 -13 20 -5 32 -44 32 -108 0 -21 5 -41 10 -44 6 -3 10
-17 10 -31 0 -13 4 -24 8 -24 10 0 34 -138 52 -287 20 -166 -14 -651 -51 -725
-11 -21 -19 -46 -19 -58 0 -11 -5 -20 -10 -20 -6 0 -8 -10 -4 -23 6 -25 -60
-209 -77 -215 -5 -2 -9 -13 -9 -25 0 -25 -13 -49 -26 -48 -5 1 -9 -2 -9 -6 0
-16 -17 -33 -26 -28 -5 4 -6 -7 -3 -25 6 -27 4 -30 -20 -30 -14 0 -26 -4 -26
-10 0 -5 -7 -10 -15 -10 -8 0 -15 -5 -15 -12 0 -6 -8 -20 -17 -31 -17 -19 -17
-20 0 -14 26 10 20 -5 -13 -33 -24 -19 -30 -32 -30 -61 0 -29 -5 -39 -20 -44
-15 -5 -19 -12 -15 -26 3 -10 8 -28 11 -39 3 -11 1 -20 -3 -20 -10 0 -53 54
-53 66 0 10 -49 54 -60 54 -5 0 -7 -21 -5 -47 2 -27 4 -52 5 -58 0 -5 11 -23
25 -39 14 -16 25 -33 25 -37 0 -29 -71 -20 -125 17 -25 17 -48 24 -69 22 l-31
-3 40 -14 c35 -12 84 -41 163 -96 12 -9 32 -35 43 -57 12 -23 27 -48 34 -55 7
-7 23 -29 36 -50 13 -21 29 -42 36 -46 7 -4 20 -23 29 -42 9 -19 33 -54 53
-77 55 -62 61 -79 61 -161 0 -66 3 -76 25 -95 18 -16 25 -18 25 -8 0 8 -4 17
-10 21 -5 3 -7 12 -4 20 4 8 11 12 17 8 9 -6 8 13 -8 107 -3 14 2 5 11 -20 16
-48 24 -159 11 -167 -4 -2 -5 -9 -2 -14 19 -30 53 21 37 55 -6 11 -13 45 -17
74 -9 78 -41 174 -82 242 -37 64 -47 70 -57 43 -6 -15 -8 -15 -16 -3 -14 21
-12 30 5 30 16 0 20 30 6 46 -11 12 -46 113 -40 118 2 2 29 7 59 10 113 13
234 42 265 63 23 15 79 17 105 3 10 -5 45 -10 78 -11 58 -2 62 0 133 56 41 32
78 62 83 66 14 13 -1 23 -16 12 -7 -6 -41 -20 -75 -31 -64 -21 -92 -20 -143 8
-31 17 -99 -2 -174 -48 -59 -37 -60 -37 -200 -43 -78 -3 -148 -2 -156 2 -8 4
-23 22 -34 39 -18 32 -18 32 2 26 11 -4 23 -2 27 5 6 8 9 8 15 -1 6 -9 10 -6
15 9 4 13 15 21 28 21 12 0 28 9 35 21 11 17 16 18 28 8 18 -15 16 -17 47 61
23 56 26 61 27 33 0 -17 5 -35 10 -38 6 -3 10 -3 11 2 0 4 2 51 5 103 2 52 11
115 18 140 8 25 17 67 20 94 3 27 11 55 16 61 6 7 10 17 9 21 -5 27 2 46 15
41 26 -10 40 21 37 86 -1 16 -5 26 -11 22 -6 -3 -13 0 -16 8 -3 8 18 51 46 95
27 45 50 84 50 87 0 3 0 9 0 15 0 5 10 18 21 29 14 13 19 26 15 37 -5 13 -9
15 -18 6 -7 -7 -21 -12 -31 -12 -17 0 -18 4 -12 33 5 17 7 89 6 158 -2 101 0
129 11 135 8 5 23 24 34 42 19 33 19 33 -2 50 -17 13 -23 32 -28 87 -4 39 -15
115 -26 170 -10 55 -21 123 -25 150 -3 28 -10 72 -16 98 -8 36 -8 55 1 77 10
25 10 34 -4 55 -26 40 -62 57 -160 77 -88 18 -383 32 -481 22z m386 -1837 c-8
-8 -11 -7 -11 4 0 20 13 34 18 19 3 -7 -1 -17 -7 -23z"/>
<path d="M8750 7320 c0 -5 5 -10 10 -10 6 0 10 5 10 10 0 6 -4 10 -10 10 -5 0
-10 -4 -10 -10z"/>
<path d="M4276 7238 c-44 -40 -108 -101 -143 -135 l-63 -61 35 -22 c38 -24 48
-20 73 30 12 24 12 24 7 -7 -2 -18 0 -33 5 -33 6 0 11 5 11 10 1 6 2 14 3 19
0 5 4 13 9 17 4 4 7 13 7 21 0 7 16 36 35 63 19 27 35 54 35 59 0 12 31 24 57
22 29 -3 32 7 19 52 l-11 37 -79 -72z"/>
<path d="M4080 6698 c0 -21 5 -38 10 -38 13 0 13 40 0 60 -7 11 -10 5 -10 -22z"/>
<path d="M2576 6595 c-26 -33 -26 -34 -7 -45 31 -16 37 -13 53 29 14 35 14 40
1 45 -8 3 -16 6 -18 6 -1 0 -14 -16 -29 -35z"/>
<path d="M2676 6593 c-3 -10 -15 -33 -26 -52 -30 -48 -17 -50 31 -3 37 35 41
43 30 56 -17 21 -27 20 -35 -1z"/>
<path d="M2470 5996 c0 -7 7 -19 15 -26 8 -7 15 -22 15 -34 1 -16 4 -13 15 13
22 50 19 61 -15 61 -19 0 -30 -5 -30 -14z"/>
<path d="M1831 5826 c-9 -10 -11 -28 -7 -51 7 -38 16 -47 34 -37 8 6 8 20 -1
56 -11 42 -14 46 -26 32z"/>
<path d="M1580 5720 c0 -5 5 -10 10 -10 6 0 10 5 10 10 0 6 -4 10 -10 10 -5 0
-10 -4 -10 -10z"/>
<path d="M6873 5683 c-15 -5 -17 -29 -4 -37 5 -3 11 5 13 19 3 14 5 25 4 24 0
0 -7 -3 -13 -6z"/>
<path d="M633 5632 c3 -17 3 -32 -2 -34 -4 -2 -11 -16 -15 -33 -7 -29 -7 -29
13 -11 23 21 29 90 9 102 -8 5 -9 -2 -5 -24z"/>
<path d="M7310 5601 c0 -16 12 -44 28 -64 15 -19 33 -43 40 -53 12 -18 13 -18
7 1 -41 132 -75 186 -75 116z"/>
<path d="M1373 5560 c-13 -21 -23 -43 -23 -47 1 -10 28 24 46 60 23 42 2 32
-23 -13z"/>
<path d="M7535 5545 c-5 -35 -36 -126 -78 -229 -38 -94 -88 -223 -112 -286
-37 -101 -113 -264 -172 -370 -11 -19 -55 -120 -98 -225 -43 -104 -100 -236
-127 -292 -47 -100 -48 -104 -46 -190 3 -115 -20 -194 -68 -237 -42 -37 -55
-78 -89 -281 -21 -128 -25 -182 -25 -366 0 -233 -9 -289 -65 -399 -24 -48 -81
-108 -91 -97 -8 7 -102 -34 -165 -73 -26 -16 -56 -29 -66 -28 -48 1 -351 -36
-403 -49 -22 -6 -43 -6 -57 0 -18 8 -27 6 -43 -8 -11 -10 -22 -16 -23 -14 -2
2 -13 20 -25 39 -12 19 -22 29 -22 23 0 -7 -12 -13 -26 -13 -19 0 -25 4 -20
15 3 9 -3 20 -14 27 -31 20 -24 28 24 28 31 0 46 5 50 16 8 22 8 25 -6 23 -29
-3 -49 2 -43 11 20 32 -66 68 -166 69 -21 1 -39 7 -42 14 -3 9 -39 18 -99 25
-86 11 -118 9 -158 -5 -8 -4 -23 -5 -32 -4 -10 1 -18 -3 -18 -10 0 -6 -8 -17
-17 -24 -29 -22 6 -45 69 -46 29 -1 65 -7 79 -15 18 -9 29 -10 36 -3 7 7 17 8
29 1 11 -5 39 -13 64 -17 64 -10 95 -25 116 -57 11 -15 25 -28 33 -28 9 0 11
-7 8 -22 -4 -12 -2 -27 2 -32 5 -6 16 -37 24 -69 14 -57 14 -59 -7 -67 -25
-11 -411 -44 -429 -37 -7 2 -18 32 -26 65 -14 67 -61 126 -82 105 -8 -8 -6
-16 8 -30 29 -29 45 -73 53 -145 4 -38 14 -74 23 -83 18 -17 82 -21 72 -4 -4
6 -13 8 -21 5 -12 -5 -41 30 -32 39 2 2 39 9 83 14 44 6 109 15 145 21 36 5
120 12 187 16 l122 7 3 -39 3 -39 108 -7 c104 -7 165 -25 237 -69 31 -19 77
-39 163 -72 48 -18 84 -37 80 -41 -13 -13 43 12 99 43 29 17 84 42 121 56 l69
25 101 -26 c56 -15 136 -41 177 -58 41 -18 148 -56 238 -85 89 -30 162 -57
162 -61 0 -4 -17 -18 -37 -32 -157 -103 -150 -96 -214 -206 -16 -28 -24 -32
-61 -32 -24 0 -83 -7 -133 -15 -204 -32 -257 -36 -310 -19 -27 8 -102 19 -165
25 -194 17 -316 54 -425 128 -33 23 -95 28 -95 9 0 -6 -16 -27 -36 -45 -35
-31 -36 -35 -32 -85 3 -35 24 -96 61 -178 30 -69 54 -126 53 -127 -1 -1 -118
11 -261 27 -463 52 -435 47 -435 76 0 8 -5 14 -11 14 -5 0 -7 5 -3 11 4 6 8
35 10 65 4 55 -11 94 -63 157 -13 16 -23 32 -23 37 0 4 16 17 35 29 42 25 95
104 95 143 0 25 -2 27 -25 18 -17 -6 -25 -6 -25 1 0 5 -11 22 -24 36 -20 21
-26 41 -31 102 -7 86 -13 111 -24 111 -11 0 -8 -63 3 -71 15 -12 -4 -29 -32
-29 -15 0 -40 -7 -56 -15 -15 -8 -37 -15 -47 -15 -11 0 -22 -6 -25 -14 -3 -8
-11 -13 -19 -10 -7 3 -15 -4 -18 -17 -4 -16 -10 -20 -24 -14 -10 4 -31 9 -48
12 -35 6 -55 20 -55 39 0 8 -9 23 -19 33 -11 11 -27 35 -37 53 -9 18 -22 40
-28 48 -7 8 -21 35 -31 60 -10 25 -38 76 -62 113 -24 37 -43 72 -43 77 0 5 -7
13 -16 18 -10 5 -16 24 -17 49 -1 23 -5 39 -9 36 -5 -2 -8 8 -8 22 0 30 -32
105 -62 146 -14 19 -18 34 -13 50 10 30 10 113 0 129 -5 8 -11 8 -22 -2 -22
-18 -45 -16 -72 7 l-23 20 7 -34 c7 -34 55 -158 93 -241 34 -74 72 -173 72
-187 0 -7 27 -66 60 -130 40 -78 60 -128 60 -152 0 -20 5 -64 10 -99 13 -77
-1 -117 -40 -117 -15 0 -29 -8 -35 -20 -9 -17 -21 -20 -75 -20 -40 0 -79 -7
-102 -18 -51 -23 -104 -22 -118 2 -5 11 -19 23 -30 26 -11 3 -20 12 -20 19 0
7 -16 27 -36 44 -20 18 -51 62 -69 98 -18 36 -39 73 -46 82 -8 9 -20 27 -26
40 -7 12 -19 32 -25 45 -7 12 -15 24 -18 27 -8 8 -28 42 -59 100 -16 30 -41
72 -55 93 -14 21 -26 43 -26 49 0 14 -42 88 -51 88 -3 0 -9 12 -12 28 -3 15
-23 46 -44 68 -21 23 -59 65 -86 93 -44 48 -88 76 -109 69 -9 -3 78 -151 126
-213 51 -65 129 -183 196 -295 35 -58 68 -112 76 -120 7 -8 29 -44 50 -80 34
-59 38 -71 37 -134 -2 -75 -7 -85 -55 -100 -25 -9 -34 -18 -38 -41 -5 -28 -9
-30 -57 -35 -60 -6 -73 -4 -73 16 0 8 -9 14 -19 14 -11 0 -23 5 -26 10 -3 6
-23 10 -43 10 -20 0 -50 7 -66 15 -15 8 -33 15 -40 15 -6 0 -17 9 -24 20 -7
12 -18 17 -27 13 -9 -3 -15 -2 -14 3 4 23 -2 45 -11 39 -6 -4 -8 -16 -4 -27 4
-14 2 -18 -5 -14 -6 4 -11 14 -11 22 0 8 -9 22 -19 31 -11 9 -17 22 -14 29 3
8 -1 14 -8 14 -21 0 -72 58 -63 71 4 7 3 9 -2 6 -11 -6 -160 142 -157 154 2 5
-5 5 -14 2 -12 -5 -15 -2 -10 10 9 23 -2 47 -22 47 -9 0 -27 16 -41 34 -26 35
-62 50 -78 34 -6 -6 -19 3 -33 24 -38 53 -101 118 -116 118 -7 0 -16 7 -20 16
-9 24 -45 34 -64 18 -33 -30 -56 -21 -106 40 -64 79 -87 85 -34 8 46 -65 76
-135 60 -140 -5 -2 -35 22 -67 54 -50 50 -137 103 -149 90 -5 -5 38 -46 48
-46 4 0 22 -24 39 -52 38 -63 70 -92 129 -120 24 -11 74 -48 111 -83 36 -34
79 -70 95 -81 38 -25 135 -121 135 -134 0 -5 8 -10 18 -10 22 0 122 -87 122
-106 0 -8 4 -14 10 -14 11 0 39 -57 41 -85 6 -63 -2 -95 -31 -123 -16 -17 -30
-35 -30 -40 0 -10 -49 -32 -80 -37 -8 -1 -39 -9 -69 -18 -76 -23 -98 -22 -177
14 -86 39 -100 49 -82 61 9 7 6 8 -10 5 -16 -4 -22 -2 -19 7 3 7 2 17 -1 22
-14 18 -89 64 -106 64 -9 0 -14 4 -11 10 3 5 -1 10 -9 10 -9 0 -16 4 -16 9 0
5 -16 16 -36 26 -30 14 -43 15 -81 6 -52 -14 -57 -11 -83 39 -11 22 -34 55
-51 74 -25 29 -34 33 -52 26 -12 -5 -34 -11 -48 -14 -22 -5 -26 -10 -23 -33 2
-16 2 -23 -2 -16 -3 7 -12 9 -20 6 -9 -3 -69 20 -135 52 -111 53 -121 56 -138
41 -25 -23 -36 -20 -64 14 -42 49 -67 131 -67 218 0 59 -6 91 -25 137 -14 33
-36 97 -50 142 -14 45 -59 151 -99 235 -57 117 -79 176 -96 253 -30 137 -28
245 3 316 31 68 41 76 164 133 128 58 164 70 328 110 121 30 141 38 221 92
245 162 370 188 462 94 20 -20 140 -110 147 -110 9 0 5 49 -6 73 -6 13 -24 28
-40 34 -23 9 -29 17 -29 40 0 39 -62 129 -95 137 -15 4 -37 0 -56 -10 -18 -9
-52 -22 -78 -30 -58 -18 -118 -53 -214 -126 -42 -32 -79 -58 -83 -58 -4 0 -29
-13 -56 -30 -58 -36 -61 -36 -77 -6 -10 18 -10 28 -1 46 16 30 5 37 -21 14
-17 -15 -20 -26 -15 -56 6 -35 4 -38 -21 -44 -127 -29 -218 -55 -272 -78 -74
-30 -71 -29 -71 -16 0 6 7 10 17 10 9 0 13 3 10 7 -8 7 73 64 83 58 4 -2 16 3
26 13 32 28 62 42 89 42 14 0 25 5 25 10 0 6 13 10 29 10 17 0 33 5 36 10 8
13 9 14 -113 -16 -142 -35 -220 -72 -286 -134 l-55 -52 -25 41 c-26 41 -46 53
-46 28 0 -8 9 -22 20 -32 26 -24 26 -30 -11 -111 -38 -84 -65 -167 -74 -228
-5 -33 -12 -46 -24 -46 -29 1 -59 34 -70 77 -7 23 -17 45 -23 49 -17 11 -3
-74 16 -95 21 -23 20 -48 -1 -59 -12 -7 -14 -17 -10 -42 6 -28 5 -31 -8 -20
-8 6 -17 20 -20 31 -4 10 -12 19 -19 19 -7 0 -12 10 -12 22 1 13 -4 23 -9 23
-6 0 -22 10 -35 23 -19 18 -22 25 -11 31 9 6 10 11 2 15 -6 4 -16 4 -23 0 -8
-5 -9 -2 -5 9 3 9 3 16 -1 16 -22 -4 -33 3 -29 15 5 12 -43 66 -58 66 -3 0
-37 33 -76 73 -145 148 -160 170 -132 186 17 10 17 10 0 11 -10 0 -15 5 -12
11 4 6 -2 17 -14 25 -12 9 -19 20 -16 25 4 5 -10 18 -29 30 -34 20 -54 56 -48
87 2 6 -2 12 -8 12 -5 0 -10 6 -10 14 0 8 -3 16 -7 18 -11 4 -63 82 -63 94 -1
13 -38 60 -44 54 -2 -3 16 -39 41 -79 58 -95 64 -131 29 -154 -14 -10 -26 -24
-26 -32 0 -8 -7 -15 -15 -15 -8 0 -15 -7 -15 -15 0 -8 -9 -24 -20 -35 l-20
-20 52 0 c29 0 73 5 97 11 34 8 46 7 52 -3 10 -15 14 -13 -77 -28 -45 -7 -79
-18 -90 -30 -35 -35 -45 -50 -34 -50 16 0 12 -18 -8 -29 -9 -5 -54 -12 -100
-16 -69 -6 -82 -5 -82 7 0 8 9 23 20 33 17 15 20 31 20 93 0 59 -3 72 -13 64
-16 -13 -32 -60 -47 -133 -10 -54 -12 -56 -53 -68 -23 -7 -50 -15 -59 -17 -24
-7 -23 8 7 101 35 105 85 204 153 299 59 82 136 150 159 142 18 -7 17 -3 -17
47 -69 103 -143 323 -180 537 -6 36 -25 119 -42 185 -42 165 -38 245 22 400
23 61 44 122 47 137 3 16 10 25 16 21 5 -3 7 -1 4 4 -4 6 0 30 8 53 18 52 18
52 0 76 -14 18 -15 15 -14 -31 1 -44 -10 -73 -94 -245 -52 -108 -126 -254
-164 -325 -39 -72 -116 -220 -173 -330 -56 -110 -106 -204 -111 -210 -5 -5 -9
-557 -9 -1258 l0 -1249 63 6 c34 4 150 13 257 22 107 8 240 19 295 24 144 13
481 37 690 50 99 6 232 15 295 20 231 18 367 21 345 9 -10 -7 -49 -14 -85 -16
-36 -3 -114 -10 -175 -17 -60 -7 -146 -14 -190 -15 -44 -1 -81 -4 -83 -6 -7
-6 9 -44 24 -60 22 -22 34 -18 34 10 0 17 6 25 18 26 9 0 26 3 37 6 11 3 118
10 237 16 174 8 220 8 233 -3 14 -11 13 -14 -2 -26 -17 -12 -17 -13 2 -19 11
-4 30 -11 43 -16 13 -5 31 -9 40 -9 9 -1 31 -19 47 -40 17 -21 36 -39 43 -40
6 0 12 -9 12 -20 0 -10 9 -24 20 -30 11 -6 20 -16 20 -22 0 -6 29 -42 65 -79
36 -37 65 -74 65 -83 0 -8 13 -22 29 -31 17 -8 31 -25 33 -37 2 -13 11 -24 22
-26 11 -3 16 0 12 7 -14 22 13 10 46 -19 18 -16 40 -30 49 -30 10 0 19 -5 21
-12 6 -16 158 -25 158 -9 0 7 23 11 60 11 44 0 61 4 68 16 10 18 90 36 94 22
2 -6 13 -6 28 0 27 10 53 5 45 -8 -3 -5 -1 -11 5 -15 6 -3 13 0 15 8 8 19 63
9 76 -14 5 -11 8 -23 5 -28 -3 -5 13 -5 36 1 28 6 44 6 46 -1 2 -5 10 -7 18
-4 10 3 16 -4 20 -26 4 -17 10 -29 14 -26 4 2 5 17 2 31 -3 19 -1 25 7 20 6
-4 11 -20 11 -37 0 -16 5 -29 11 -29 5 0 8 -4 5 -9 -4 -5 0 -11 6 -14 10 -4
11 -7 1 -18 -7 -7 -13 -25 -13 -40 0 -15 -3 -29 -8 -31 -4 -1 -22 -22 -40 -45
-19 -24 -40 -43 -48 -43 -8 0 -14 -5 -14 -12 0 -7 -12 -24 -26 -39 l-25 -26
25 -7 c14 -3 26 -13 26 -21 0 -8 9 -19 19 -25 23 -12 64 -13 57 -2 -9 15 58
41 77 31 12 -7 20 -5 28 9 7 12 19 17 31 14 10 -2 24 0 31 6 7 6 30 9 51 6 30
-3 42 0 56 16 17 19 57 29 46 11 -3 -5 1 -12 10 -15 22 -9 24 -8 24 9 0 12 4
13 18 6 11 -6 24 -6 35 0 13 8 19 6 23 -5 3 -9 10 -14 14 -11 21 13 -146 -304
-197 -372 -12 -17 -23 -36 -23 -42 0 -5 -6 -16 -13 -23 -28 -28 -81 -132 -69
-136 6 -2 27 -14 47 -28 19 -13 49 -25 65 -26 19 -1 30 -8 31 -18 1 -8 5 3 9
25 4 22 4 41 -1 43 -11 4 9 25 39 41 12 6 22 18 22 26 0 8 4 15 8 15 5 0 14
11 20 24 21 47 161 72 234 42 18 -8 74 -19 124 -24 57 -7 103 -18 125 -31 24
-14 63 -22 133 -28 100 -8 135 -25 78 -37 -16 -4 -35 -19 -45 -35 -20 -35 -24
-62 -5 -43 7 7 20 12 29 12 10 0 19 4 21 9 2 5 34 3 73 -5 53 -10 83 -11 125
-3 79 15 147 39 161 55 15 18 43 18 59 -1 7 -8 23 -15 36 -15 17 0 24 -6 24
-18 0 -15 7 -18 43 -17 23 1 57 9 74 19 40 20 107 24 128 6 8 -7 15 -22 16
-34 0 -21 0 -21 9 2 11 27 15 27 51 1 16 -11 36 -18 45 -15 8 3 23 -3 34 -14
16 -16 17 -23 7 -43 -10 -22 -13 -23 -23 -9 -17 24 -46 8 -39 -21 4 -15 1 -30
-9 -40 -21 -21 -20 -33 5 -58 12 -12 19 -30 17 -46 -2 -20 4 -29 32 -44 19
-11 29 -19 22 -19 -6 0 -12 -7 -12 -15 0 -18 -12 -19 -28 -3 -21 21 -83 37
-107 28 -13 -5 -26 -6 -29 -3 -3 4 -6 -3 -6 -14 0 -11 -8 -23 -18 -25 -15 -4
-17 1 -14 34 4 33 1 40 -17 45 -11 3 -21 12 -21 20 0 16 -33 10 -59 -11 -11
-8 -15 -8 -18 2 -8 21 -54 15 -60 -9 -3 -11 -11 -18 -19 -15 -7 3 -16 1 -20
-5 -3 -5 -15 -7 -27 -4 -21 6 -21 5 1 -12 63 -48 102 -92 96 -107 -6 -14 20
-16 264 -16 l271 0 25 33 c15 19 26 39 26 45 0 7 7 12 15 12 14 0 14 -3 0 -30
-8 -16 -15 -36 -15 -45 0 -13 227 -15 2270 -15 l2270 0 0 1151 0 1152 -46 -7
c-37 -5 -58 0 -117 25 -40 17 -124 49 -187 71 -63 22 -119 44 -125 48 -5 4
-26 11 -45 15 -19 4 -59 20 -89 36 -30 16 -67 29 -81 29 -49 0 -46 13 32 113
22 29 38 60 38 75 0 15 -23 74 -52 132 -70 141 -155 230 -244 255 -32 10 -84
30 -114 45 -90 45 -105 45 -211 4 -51 -20 -106 -44 -120 -55 -14 -10 -63 -35
-110 -55 -46 -20 -142 -67 -214 -104 -71 -36 -152 -76 -180 -87 -220 -92 -275
-127 -325 -206 -26 -42 -32 -46 -50 -37 -21 11 -24 6 -21 -31 1 -9 -14 -38
-33 -66 -18 -27 -46 -73 -60 -101 -31 -61 -50 -65 -124 -29 -26 13 -67 30 -92
37 -66 20 -73 28 -66 74 4 22 18 137 31 255 90 807 88 784 115 1086 25 276 47
618 60 935 11 238 8 825 -3 836 -3 3 -9 -20 -12 -51z m-6555 -2235 c0 -5 -7
-10 -15 -10 -8 0 -15 5 -15 10 0 6 7 10 15 10 8 0 15 -4 15 -10z m567 -256 c6
-16 -19 -44 -38 -44 -13 0 -39 31 -39 46 0 21 69 19 77 -2z m-27 -131 c0 -7
-4 -13 -9 -13 -16 0 -33 30 -26 47 6 17 7 17 21 -1 8 -11 14 -26 14 -33z m100
-123 c0 -11 -4 -20 -8 -20 -14 0 -32 24 -32 42 0 16 3 17 20 8 11 -6 20 -20
20 -30z m7140 -151 c0 -5 -20 -8 -45 -7 -51 1 -52 7 -3 18 35 7 48 5 48 -11z
m-7010 -65 c0 -17 -22 -14 -28 4 -2 7 3 12 12 12 9 0 16 -7 16 -16z m3905 -94
c3 -5 1 -10 -4 -10 -6 0 -11 5 -11 10 0 6 2 10 4 10 3 0 8 -4 11 -10z m-2064
-623 c-10 -9 -11 -8 -5 6 3 10 9 15 12 12 3 -3 0 -11 -7 -18z m887 -39 c-3 -7
-23 -20 -46 -28 -33 -11 -44 -12 -54 -2 -9 9 -8 12 8 12 10 0 28 7 38 15 24
18 59 20 54 3z m709 -420 c-3 -8 -6 -5 -6 6 -1 11 2 17 5 13 3 -3 4 -12 1 -19z
m3891 -113 c20 -19 -82 -128 -148 -158 -25 -11 -63 -35 -85 -53 -54 -44 -207
-116 -253 -120 -20 -1 -86 -8 -147 -14 -100 -12 -410 -8 -423 4 -2 3 -1 23 3
46 6 36 15 48 63 83 30 23 95 79 144 125 69 64 94 82 109 77 11 -4 145 -6 297
-6 219 0 286 3 322 15 38 13 106 13 118 1z m60 -135 c64 -31 314 -123 397
-146 28 -8 115 -30 194 -49 79 -19 146 -37 149 -40 14 -14 -21 -31 -163 -83
-88 -31 -229 -94 -296 -130 -42 -23 -85 -42 -96 -42 -11 0 -32 -9 -47 -21 -31
-25 -46 -18 -46 22 0 16 -11 64 -24 107 -13 42 -36 115 -50 162 -37 126 -55
170 -76 198 -11 14 -20 29 -20 33 0 15 34 10 78 -11z m-1378 -250 c0 -5 -2
-10 -4 -10 -3 0 -8 5 -11 10 -3 6 -1 10 4 10 6 0 11 -4 11 -10z m729 -234 c7
-8 15 -30 18 -50 l6 -36 -77 0 c-42 0 -76 3 -75 8 0 8 100 91 110 91 4 1 12
-5 18 -13z m129 -35 c3 -8 -1 -12 -9 -9 -7 2 -15 10 -17 17 -3 8 1 12 9 9 7
-2 15 -10 17 -17z m819 13 c-3 -3 -12 -4 -19 -1 -8 3 -5 6 6 6 11 1 17 -2 13
-5z m-4705 -146 c-9 -9 -12 -7 -12 12 0 19 3 21 12 12 9 -9 9 -15 0 -24z m470
-247 c-3 -20 -8 -28 -18 -24 -15 6 -17 13 -8 37 11 28 31 18 26 -13z m142 -86
c14 -18 15 -19 16 -2 0 13 6 17 23 15 17 -2 21 -9 19 -28 -1 -14 -7 -27 -12
-28 -6 -2 -17 -10 -24 -18 -21 -20 -59 -17 -76 6 -10 14 -26 20 -52 20 -21 0
-38 5 -38 10 0 6 11 10 25 10 13 0 29 8 34 18 13 24 66 23 85 -3z m2842 -90
c16 -12 16 -14 3 -15 -9 0 -22 7 -29 15 -16 19 0 19 26 0z"/>
<path d="M620 5495 c13 -14 25 -23 27 -21 8 8 -22 46 -36 46 -10 0 -7 -8 9
-25z"/>
<path d="M7032 5480 c0 -25 3 -54 8 -65 7 -16 9 -13 8 15 0 19 -4 49 -8 65 -7
27 -8 26 -8 -15z"/>
<path d="M1750 5503 c0 -15 31 -46 38 -38 3 3 -4 15 -16 28 -12 12 -22 16 -22
10z"/>
<path d="M7326 5454 c11 -47 36 -100 41 -87 7 18 -15 89 -33 104 -13 11 -14 9
-8 -17z"/>
<path d="M960 5443 c0 -18 -4 -35 -10 -38 -5 -3 -10 -15 -10 -25 0 -24 -40
-52 -72 -49 -12 1 -39 1 -58 1 l-34 -2 24 -17 c13 -9 35 -17 49 -18 18 0 27
-7 31 -22 5 -22 6 -22 35 -7 65 33 73 49 68 122 -6 69 -23 111 -23 55z"/>
<path d="M1452 5454 c-10 -11 -11 -22 -4 -42 l9 -27 8 38 c9 44 5 51 -13 31z"/>
<path d="M1140 5433 l-25 -13 25 0 c14 0 33 -7 44 -15 17 -13 16 -14 -17 -20
-42 -8 -100 -42 -93 -54 3 -5 25 -5 48 0 74 14 75 10 3 -56 -43 -41 -63 -65
-52 -65 9 0 17 -5 17 -11 0 -7 27 18 60 54 40 43 71 68 92 72 17 4 26 10 21
14 -20 12 -19 36 1 46 30 15 32 43 4 49 -57 12 -105 12 -128 -1z"/>
<path d="M1695 5378 c2 -59 5 -74 18 -76 17 -3 22 19 18 73 -3 27 -22 75 -31
75 -4 0 -6 -33 -5 -72z"/>
<path d="M1875 5417 c-4 -10 -5 -21 -1 -24 10 -10 18 4 13 24 -4 17 -4 17 -12
0z"/>
<path d="M840 5401 c-12 -9 -12 -11 2 -16 23 -9 83 -2 83 10 0 13 -66 18 -85
6z"/>
<path d="M1314 5399 c-15 -19 -27 -69 -16 -69 22 0 38 26 33 54 -5 24 -8 26
-17 15z"/>
<path d="M1518 5308 c5 -5 16 -8 23 -6 8 3 3 7 -10 11 -17 4 -21 3 -13 -5z"/>
<path d="M765 5243 c4 -10 9 -29 12 -43 2 -13 10 -28 16 -33 9 -7 9 -10 0 -14
-16 -6 -17 -33 -1 -33 6 0 3 -6 -8 -14 -10 -8 -17 -16 -14 -18 31 -20 46 -23
67 -14 12 6 23 19 23 29 0 9 6 17 13 17 6 0 0 12 -15 25 -16 13 -28 32 -28 42
-1 22 -28 56 -54 66 -15 6 -17 4 -11 -10z"/>
<path d="M660 5165 c0 -8 -4 -15 -9 -15 -6 0 -9 -9 -8 -19 1 -23 35 -35 54
-19 17 14 16 28 -2 28 -8 0 -15 9 -15 20 0 11 -4 20 -10 20 -5 0 -10 -7 -10
-15z"/>
<path d="M3710 5151 c-6 -12 -10 -32 -8 -44 3 -20 5 -19 19 9 19 37 8 70 -11
35z"/>
<path d="M1897 5126 c-3 -8 -3 -30 0 -50 5 -30 3 -35 -18 -38 -24 -3 -23 -4
11 -38 33 -34 35 -34 38 -12 4 27 5 27 56 0 51 -27 96 -67 96 -85 0 -7 7 -13
15 -13 35 0 15 29 -84 124 -29 28 -60 68 -68 88 -16 39 -37 49 -46 24z"/>
<path d="M1310 5099 c-14 -6 -36 -8 -50 -5 -18 3 -33 -3 -54 -25 -16 -16 -36
-29 -44 -29 -8 0 -30 -13 -49 -30 -39 -35 -73 -39 -80 -10 -7 27 -16 25 -31
-8 -12 -28 -62 -90 -115 -143 -15 -15 -30 -41 -33 -58 -6 -27 -4 -31 15 -31
12 0 24 7 27 15 6 14 8 13 21 -2 10 -13 16 -14 19 -6 6 14 118 104 149 121 11
5 41 13 68 17 39 6 47 5 47 -9 0 -21 6 -20 37 4 21 16 29 18 41 8 13 -11 14
-10 8 10 -5 13 -3 29 4 37 10 11 2 13 -47 9 -87 -8 -94 -10 -153 -55 -67 -50
-99 -64 -114 -49 -8 8 -3 18 19 36 17 13 50 41 73 61 24 20 63 42 85 50 23 8
54 26 68 39 l27 26 41 -21 c22 -12 41 -26 41 -31 0 -20 27 -9 38 15 7 15 26
32 43 39 l31 13 -32 12 c-39 13 -66 13 -100 0z"/>
<path d="M741 5082 c0 -7 -5 -10 -11 -7 -5 3 -10 -3 -10 -14 0 -12 -6 -21 -12
-21 -9 0 -8 -3 2 -9 18 -12 44 21 37 47 -3 9 -5 11 -6 4z"/>
<path d="M7151 5044 c0 -11 3 -14 6 -6 3 7 2 16 -1 19 -3 4 -6 -2 -5 -13z"/>
<path d="M1665 5030 c4 -6 11 -8 16 -5 14 9 11 15 -7 15 -8 0 -12 -5 -9 -10z"/>
<path d="M1428 5013 c-3 -11 6 -27 24 -41 26 -22 28 -22 28 -5 0 11 -11 30
-24 42 -22 20 -24 21 -28 4z"/>
<path d="M7115 4958 c10 -77 24 -94 25 -31 0 56 -7 83 -22 83 -6 0 -7 -20 -3
-52z"/>
<path d="M1677 4983 c-10 -16 11 -39 23 -27 8 8 7 14 -4 23 -8 7 -17 8 -19 4z"/>
<path d="M714 4972 c-6 -4 -8 -17 -5 -29 l6 -22 12 24 c11 26 5 39 -13 27z"/>
<path d="M490 4939 c0 -11 5 -17 10 -14 6 3 10 13 10 21 0 8 -4 14 -10 14 -5
0 -10 -9 -10 -21z"/>
<path d="M1950 4906 c0 -18 27 -46 45 -46 20 0 30 -21 14 -31 -8 -5 -25 -9
-39 -9 -56 -1 -104 -26 -128 -69 -30 -53 -12 -54 41 -3 37 36 39 36 52 18 12
-16 19 -18 39 -8 21 9 26 8 39 -11 13 -20 18 -21 47 -10 35 13 34 18 14 -55
-6 -19 -3 -23 12 -21 10 2 24 0 31 -4 8 -5 10 7 9 42 -2 41 -10 59 -45 105
-24 31 -47 56 -52 56 -5 0 -9 7 -9 15 0 8 -6 15 -14 15 -7 0 -19 7 -26 15 -16
19 -30 19 -30 1z"/>
<path d="M500 4888 c0 -25 20 -85 35 -108 6 -7 20 -34 32 -60 19 -40 21 -42
22 -18 1 15 -3 29 -8 32 -4 3 -11 24 -15 47 -11 71 -66 160 -66 107z"/>
<path d="M1522 4868 c1 -18 -4 -57 -10 -85 -16 -74 -5 -97 20 -42 13 30 18 60
16 98 -3 59 -27 87 -26 29z"/>
<path d="M7050 4855 c-15 -18 -15 -94 -1 -108 8 -8 12 -5 13 9 2 28 4 114 2
114 -1 0 -7 -7 -14 -15z"/>
<path d="M1162 4848 c-6 -6 -12 -19 -12 -27 0 -13 2 -13 16 1 9 9 15 21 13 27
-3 9 -8 8 -17 -1z"/>
<path d="M3424 4844 c-18 -14 -18 -14 6 -3 31 14 36 19 24 19 -6 0 -19 -7 -30
-16z"/>
<path d="M1706 4811 c-10 -15 32 -20 51 -5 16 12 15 13 -14 14 -17 0 -34 -4
-37 -9z"/>
<path d="M3315 4801 c-51 -24 -82 -47 -73 -56 7 -8 90 38 108 60 16 19 14 19
-35 -4z"/>
<path d="M1148 4794 c-13 -13 -9 -51 7 -64 9 -7 17 -11 19 -9 7 8 -19 81 -26
73z"/>
<path d="M1100 4760 c0 -6 4 -9 9 -6 5 4 12 1 14 -4 3 -6 4 -5 3 2 -3 15 -26
23 -26 8z"/>
<path d="M2201 4728 c5 -18 9 -48 9 -65 0 -39 17 -43 30 -7 20 52 3 104 -35
104 -11 0 -12 -7 -4 -32z"/>
<path d="M1652 4733 c-15 -30 -23 -73 -13 -73 5 0 19 12 31 28 l21 27 -5 -33
c-3 -17 -21 -56 -41 -84 -19 -29 -35 -64 -35 -78 0 -14 -5 -31 -12 -38 -7 -7
-8 -12 -2 -12 26 0 124 190 124 243 0 34 -2 37 -30 37 -18 0 -33 -7 -38 -17z"/>
<path d="M971 4656 c-68 -67 -73 -85 -36 -131 16 -19 16 -18 12 22 -3 23 -3
44 0 46 2 3 16 -1 31 -9 34 -17 41 -10 12 14 -28 23 -22 36 33 63 23 12 44 23
46 25 3 3 -25 34 -31 34 -2 -1 -32 -29 -67 -64z"/>
<path d="M1190 4699 c0 -5 -13 -15 -30 -20 -29 -11 -30 -13 -29 -67 1 -32 4
-43 6 -27 11 90 25 97 112 55 35 -17 71 -29 80 -27 9 2 -7 14 -41 29 -31 14
-65 35 -77 47 -12 12 -21 16 -21 10z"/>
<path d="M807 4683 c-4 -3 -7 -15 -7 -27 0 -20 0 -20 15 0 8 10 15 22 15 27 0
9 -14 9 -23 0z"/>
<path d="M1512 4635 c-1 -33 -5 -71 -8 -85 -5 -19 -4 -22 5 -14 8 7 11 37 8
85 -3 72 -3 73 -5 14z"/>
<path d="M638 4644 c-36 -19 -35 -22 4 -20 22 1 34 7 36 19 4 21 -4 21 -40 1z"/>
<path d="M2130 4601 c0 -23 -6 -44 -16 -52 -23 -19 -64 -108 -64 -139 0 -14
-5 -31 -12 -38 -8 -8 -9 -12 -1 -12 6 0 17 16 23 35 6 19 17 34 23 32 6 -1 19
19 27 44 8 25 24 58 34 73 13 20 16 38 11 62 -8 46 -25 43 -25 -5z"/>
<path d="M6920 4530 c-13 -32 -5 -55 10 -30 9 15 14 60 6 60 -2 0 -9 -14 -16
-30z"/>
<path d="M830 4493 c0 -16 -6 -40 -14 -55 -11 -20 -11 -26 -1 -22 7 3 17 16
23 30 14 28 27 30 82 8 44 -18 60 -13 44 14 -10 16 -94 52 -121 52 -7 0 -13
-12 -13 -27z"/>
<path d="M1735 4429 c-33 -55 -80 -113 -92 -115 -31 -6 -52 -18 -46 -27 4 -6
9 -27 12 -46 8 -48 23 -47 46 2 12 23 42 84 69 135 53 102 59 130 11 51z"/>
<path d="M3016 4425 c-8 -8 -18 -41 -22 -72 -5 -45 -3 -63 11 -89 l17 -33 35
37 c19 20 34 30 33 22 -5 -30 0 -50 12 -50 6 0 8 3 5 7 -4 3 2 12 13 20 11 8
20 20 20 27 0 18 25 27 38 14 8 -8 20 -7 42 2 17 7 46 10 66 7 29 -5 34 -4 24
8 -6 7 -28 16 -49 20 -21 3 -50 13 -65 20 -24 13 -31 13 -56 0 -26 -14 -28
-13 -34 8 l-6 22 -19 -24 c-12 -16 -24 -22 -36 -17 -14 5 -16 14 -11 46 7 44
5 47 -18 25z m94 -95 c0 -5 -5 -10 -11 -10 -5 0 -7 5 -4 10 3 6 8 10 11 10 2
0 4 -4 4 -10z"/>
<path d="M1110 4425 c0 -15 34 -62 52 -74 19 -12 18 -10 -3 21 -27 39 -49 62
-49 53z"/>
<path d="M3427 4324 c-4 -4 -7 -18 -7 -31 0 -22 1 -23 16 -9 10 10 12 21 7 31
-5 9 -12 12 -16 9z"/>
<path d="M1798 4241 c-1 -39 0 -71 3 -71 3 0 15 10 26 23 20 20 20 25 8 61
-23 67 -33 64 -37 -13z"/>
<path d="M1975 4284 c-16 -8 -43 -14 -58 -11 -34 5 -45 -8 -18 -23 11 -5 22
-6 25 -1 3 5 21 12 39 15 38 7 83 35 57 36 -8 0 -28 -7 -45 -16z"/>
<path d="M3150 4251 c-13 -25 -13 -51 0 -51 10 0 30 41 30 61 0 16 -19 10 -30
-10z"/>
<path d="M2560 4148 c0 -26 -53 -114 -99 -162 -37 -39 -40 -45 -15 -28 34 23
72 70 98 119 11 22 21 30 32 26 12 -4 15 0 12 22 -3 28 -28 49 -28 23z"/>
<path d="M2545 3969 c-81 -41 -94 -56 -21 -24 47 21 61 23 67 13 11 -16 42 1
47 26 5 24 -25 19 -93 -15z"/>
<path d="M2420 3891 c-19 -16 -33 -31 -30 -34 3 -2 21 11 40 29 43 42 37 44
-10 5z"/>
<path d="M1630 3783 c0 -21 91 -79 104 -66 12 12 6 22 -16 25 -13 2 27 2 87 0
110 -4 260 14 315 38 l25 11 -25 -6 c-86 -20 -235 -35 -300 -31 -41 3 -94 7
-116 9 -23 1 -49 9 -58 16 -9 7 -16 9 -16 4z"/>
<path d="M1520 3743 c0 -28 15 -44 33 -37 23 9 21 19 -8 38 -23 15 -25 15 -25
-1z"/>
<path d="M610 3670 c0 -48 3 -60 15 -60 20 0 75 28 75 38 0 10 -73 82 -83 82
-4 0 -7 -27 -7 -60z"/>
<path d="M2255 3720 c-3 -5 -1 -10 4 -10 6 0 11 5 11 10 0 6 -2 10 -4 10 -3 0
-8 -4 -11 -10z"/>
<path d="M1510 3599 c0 -9 9 -24 20 -34 26 -23 26 -4 0 26 -15 18 -19 20 -20
8z"/>
<path d="M5280 3486 c0 -8 11 -17 25 -20 14 -4 25 -11 25 -16 0 -6 7 -10 16
-10 8 0 12 5 9 10 -3 6 1 10 9 10 8 0 17 -4 20 -9 3 -4 29 -11 58 -14 69 -8
92 -13 118 -27 12 -6 43 -12 68 -13 31 -1 53 -8 63 -19 9 -10 27 -18 39 -18
13 0 31 -6 39 -13 24 -19 78 -35 149 -42 36 -4 69 -14 78 -23 9 -8 31 -16 50
-16 19 -1 34 -5 34 -9 0 -15 41 14 58 42 13 20 24 26 45 24 18 -1 27 3 27 13
0 10 -7 13 -25 8 -21 -5 -25 -3 -25 15 0 14 -6 21 -18 21 -10 0 -31 14 -47 30
-18 19 -39 30 -55 30 -15 0 -41 7 -57 15 -21 10 -71 16 -156 19 -69 2 -130 7
-136 11 -6 3 -11 1 -11 -6 0 -8 -6 -7 -17 3 -13 11 -40 16 -88 17 -98 1 -135
-7 -135 -30 0 -11 -5 -19 -11 -19 -6 0 -8 7 -5 17 10 24 -11 33 -81 33 -47 0
-63 -3 -63 -14z"/>
<path d="M1445 3350 c-8 -13 -1 -24 14 -19 6 3 7 10 2 18 -6 10 -10 10 -16 1z"/>
<path d="M6178 3143 c-12 -3 -18 -14 -18 -34 0 -33 19 -39 27 -9 3 11 9 20 14
20 5 0 9 7 9 15 0 15 -2 16 -32 8z"/>
<path d="M3349 2960 c-17 -11 -12 -16 29 -23 38 -8 40 -4 9 16 -15 10 -29 12
-38 7z"/>
<path d="M6430 2820 c-9 -17 -8 -20 10 -20 11 0 20 -4 20 -10 0 -5 5 -10 10
-10 14 0 13 33 -2 48 -17 17 -26 15 -38 -8z"/>
<path d="M6500 2810 c0 -5 5 -10 10 -10 6 0 10 5 10 10 0 6 -4 10 -10 10 -5 0
-10 -4 -10 -10z"/>
<path d="M5120 2149 c0 -5 5 -7 10 -4 6 3 10 8 10 11 0 2 -4 4 -10 4 -5 0 -10
-5 -10 -11z"/>
<path d="M1465 1830 c-7 -12 2 -30 16 -30 5 0 9 9 9 20 0 21 -15 27 -25 10z"/>
<path d="M2530 1349 c0 -5 5 -7 10 -4 6 3 10 8 10 11 0 2 -4 4 -10 4 -5 0 -10
-5 -10 -11z"/>
<path d="M1 555 c-1 -138 2 -166 19 -203 17 -37 18 -50 9 -94 -11 -50 -8 -135
6 -171 6 -13 2 -20 -14 -24 -15 -4 -21 -13 -21 -35 l0 -29 251 2 251 1 -6 57
c-6 51 -4 60 15 77 49 43 63 123 28 161 -17 18 -19 25 -10 37 8 9 11 50 8 123
-3 126 -15 154 -72 173 -31 10 -41 9 -79 -10 -36 -17 -49 -31 -70 -76 -33 -69
-33 -84 -1 -84 14 0 25 -4 25 -10 0 -5 12 -10 26 -10 17 0 28 -6 31 -20 3 -11
9 -20 14 -20 5 0 9 -18 9 -40 0 -22 -4 -40 -9 -40 -5 0 -11 -7 -14 -14 -4 -10
-1 -13 9 -9 7 3 14 1 14 -5 0 -6 -5 -12 -11 -14 -8 -3 -6 -10 5 -21 15 -15 15
-17 2 -17 -11 0 -16 -10 -16 -33 0 -18 -5 -38 -11 -44 -18 -18 -2 -77 28 -107
20 -20 28 -24 35 -14 6 10 10 10 18 -2 5 -8 10 -19 10 -25 0 -5 -4 -4 -9 3 -4
7 -12 12 -17 11 -22 -4 -32 4 -83 61 -37 43 -50 64 -43 73 5 7 17 39 27 72 10
33 24 70 31 81 21 35 7 87 -29 108 -47 27 -140 33 -173 11 -14 -9 -30 -13 -34
-8 -5 4 -40 71 -79 148 l-70 140 0 -160z m40 -7 c11 -21 11 -22 -4 -9 -10 7
-17 17 -17 22 0 15 9 10 21 -13z m350 -52 c-11 -28 -34 -37 -24 -8 8 22 25 44
30 39 2 -2 -1 -16 -6 -31z m-307 -29 c8 -23 32 -66 51 -95 39 -60 40 -62 23
-62 -6 0 -9 3 -5 6 3 3 -2 14 -11 25 -9 10 -30 44 -46 76 -16 32 -36 66 -44
76 -13 15 -13 17 0 17 9 0 22 -18 32 -43z"/>
<path d="M3950 530 c0 -13 100 -13 120 0 11 7 -5 10 -52 10 -39 0 -68 -4 -68
-10z"/>
<path d="M3600 476 c0 -12 11 -16 41 -16 52 0 48 24 -4 28 -28 2 -37 -1 -37
-12z"/>
<path d="M3132 418 c-29 -4 -77 -19 -106 -33 -29 -14 -56 -25 -59 -25 -20 0
-120 -76 -155 -116 -37 -43 -95 -148 -121 -217 l-11 -27 100 0 100 0 24 49
c25 48 107 131 155 155 43 22 130 39 159 31 15 -4 21 -10 15 -12 -29 -11 -11
-24 24 -17 31 6 35 4 30 -10 -4 -11 -1 -16 10 -16 29 0 0 -17 -39 -23 -26 -4
-40 -1 -49 9 -14 17 -31 14 -35 -7 -1 -7 -7 -34 -13 -59 -6 -25 -11 -57 -11
-72 l0 -28 325 0 c179 0 325 4 325 8 0 10 -65 86 -105 123 -36 33 -92 76 -163
125 -29 21 -51 38 -49 40 2 2 19 -1 38 -6 64 -18 239 -160 300 -242 l34 -47
285 1 c186 0 269 3 240 9 -96 18 -337 49 -380 49 -43 0 -50 4 -125 76 -44 42
-99 87 -122 101 -24 14 -43 28 -43 32 0 4 -20 18 -45 30 -25 12 -50 30 -57 40
-16 22 -55 44 -67 37 -5 -3 -35 2 -67 10 -33 9 -76 20 -98 25 -54 13 -181 17
-244 7z m663 -229 c11 -17 2 -18 -19 -3 -17 12 -17 14 -4 14 9 0 20 -5 23 -11z
m-353 -9 c37 -11 68 -33 68 -50 0 -5 -27 0 -60 12 -35 12 -60 26 -60 34 0 17
4 17 52 4z"/>
<path d="M2270 9 c-81 -3 -42 -5 130 -6 155 0 228 3 200 8 -47 8 -134 8 -330
-2z"/>
</g>
</svg>
